<?xml version="1.0" encoding="UTF-8"?>
<svg id="_レイヤー_1" data-name="レイヤー 1" xmlns="http://www.w3.org/2000/svg" xmlns:xlink="http://www.w3.org/1999/xlink" viewBox="0 0 1000 240">
  <defs>
    <style>
      .cls-1 {
        clip-path: url(#clippath-1);
      }

      .cls-2 {
        fill: #fff;
      }

      .cls-3 {
        fill: #39a0e5;
      }

      .cls-4 {
        clip-path: url(#clippath);
      }
    </style>
    <clipPath id="clippath">
      <path class="cls-2" d="M72.18,187.39c-2.52,0-4.53-1.02-6.03-3.06-1.5-2.04-1.83-4.26-.99-6.66l36.36-111.96c.96-2.88,2.67-5.22,5.13-7.02,2.46-1.8,5.19-2.7,8.19-2.7h11.88c3.12,0,5.94.9,8.46,2.7,2.52,1.8,4.2,4.14,5.04,7.02l36.18,111.96c.84,2.4.51,4.62-.99,6.66-1.5,2.04-3.51,3.06-6.03,3.06h-12.06c-3,0-5.7-.93-8.1-2.79-2.4-1.86-3.96-4.23-4.68-7.11l-4.32-17.1c-.12-.96-.72-1.44-1.8-1.44h-36c-.96,0-1.56.48-1.8,1.44l-4.32,17.1c-.72,2.88-2.28,5.25-4.68,7.11-2.4,1.86-5.1,2.79-8.1,2.79h-11.34ZM120.24,82.63l-13.14,51.66c-.12.36-.03.69.27.99.3.3.63.45.99.45h24.12c.36,0,.69-.15.99-.45.3-.3.39-.63.27-.99l-13.14-51.66c0-.12-.06-.18-.18-.18s-.18.06-.18.18Z"/>
    </clipPath>
    <clipPath id="clippath-1">
      <path class="cls-2" d="M236.64,187.39c-2.76,0-5.16-1.02-7.2-3.06-2.04-2.04-3.06-4.44-3.06-7.2v-109.98c0-3,.99-5.58,2.97-7.74,1.98-2.16,4.41-3.36,7.29-3.6,10.68-1.08,21.66-1.62,32.94-1.62,18,0,31.41,3.39,40.23,10.17,8.82,6.78,13.23,16.41,13.23,28.89,0,8.04-2.34,15.27-7.02,21.69-4.68,6.42-10.8,11.01-18.36,13.77-.12,0-.18.06-.18.18,0,.24.12.36.36.36,5.88,3.36,10.86,10.44,14.94,21.24l10.26,27.36c.84,2.28.54,4.44-.9,6.48-1.44,2.04-3.36,3.06-5.76,3.06h-10.98c-3.12,0-5.94-.9-8.46-2.7-2.52-1.8-4.26-4.14-5.22-7.02l-9-25.92c-1.68-5.04-3.72-8.46-6.12-10.26-2.4-1.8-6.12-2.7-11.16-2.7h-7.56c-.96,0-1.44.54-1.44,1.62v36.72c0,2.76-1.02,5.16-3.06,7.2s-4.44,3.06-7.2,3.06h-9.54ZM256.44,80.11v34.56c0,1.08.48,1.62,1.44,1.62h8.64c8.4,0,14.82-1.77,19.26-5.31,4.44-3.54,6.66-8.49,6.66-14.85,0-12.48-8.22-18.72-24.66-18.72-3.72,0-6.96.24-9.72.72-1.08.24-1.62.9-1.62,1.98Z"/>
    </clipPath>
  </defs>
  <g>
    <path class="cls-2" d="M72.18,187.39c-2.52,0-4.53-1.02-6.03-3.06-1.5-2.04-1.83-4.26-.99-6.66l36.36-111.96c.96-2.88,2.67-5.22,5.13-7.02,2.46-1.8,5.19-2.7,8.19-2.7h11.88c3.12,0,5.94.9,8.46,2.7,2.52,1.8,4.2,4.14,5.04,7.02l36.18,111.96c.84,2.4.51,4.62-.99,6.66-1.5,2.04-3.51,3.06-6.03,3.06h-12.06c-3,0-5.7-.93-8.1-2.79-2.4-1.86-3.96-4.23-4.68-7.11l-4.32-17.1c-.12-.96-.72-1.44-1.8-1.44h-36c-.96,0-1.56.48-1.8,1.44l-4.32,17.1c-.72,2.88-2.28,5.25-4.68,7.11-2.4,1.86-5.1,2.79-8.1,2.79h-11.34ZM120.24,82.63l-13.14,51.66c-.12.36-.03.69.27.99.3.3.63.45.99.45h24.12c.36,0,.69-.15.99-.45.3-.3.39-.63.27-.99l-13.14-51.66c0-.12-.06-.18-.18-.18s-.18.06-.18.18Z"/>
    <g class="cls-4">
      <path class="cls-3" d="M190.27,141.73v83.72H27.43v-83.72c26.57,6.34,46.25,3.74,59.56-.02,26.11-7.38,35.64-21.44,56.79-21.7,19.68-.24,35.87,11.63,46.49,21.72Z"/>
    </g>
  </g>
  <g>
    <path class="cls-2" d="M236.64,187.39c-2.76,0-5.16-1.02-7.2-3.06-2.04-2.04-3.06-4.44-3.06-7.2v-109.98c0-3,.99-5.58,2.97-7.74,1.98-2.16,4.41-3.36,7.29-3.6,10.68-1.08,21.66-1.62,32.94-1.62,18,0,31.41,3.39,40.23,10.17,8.82,6.78,13.23,16.41,13.23,28.89,0,8.04-2.34,15.27-7.02,21.69-4.68,6.42-10.8,11.01-18.36,13.77-.12,0-.18.06-.18.18,0,.24.12.36.36.36,5.88,3.36,10.86,10.44,14.94,21.24l10.26,27.36c.84,2.28.54,4.44-.9,6.48-1.44,2.04-3.36,3.06-5.76,3.06h-10.98c-3.12,0-5.94-.9-8.46-2.7-2.52-1.8-4.26-4.14-5.22-7.02l-9-25.92c-1.68-5.04-3.72-8.46-6.12-10.26-2.4-1.8-6.12-2.7-11.16-2.7h-7.56c-.96,0-1.44.54-1.44,1.62v36.72c0,2.76-1.02,5.16-3.06,7.2s-4.44,3.06-7.2,3.06h-9.54ZM256.44,80.11v34.56c0,1.08.48,1.62,1.44,1.62h8.64c8.4,0,14.82-1.77,19.26-5.31,4.44-3.54,6.66-8.49,6.66-14.85,0-12.48-8.22-18.72-24.66-18.72-3.72,0-6.96.24-9.72.72-1.08.24-1.62.9-1.62,1.98Z"/>
    <g class="cls-1">
      <path class="cls-3" d="M198.13,123.83c24.19-4.79,42.19-2.13,54.44,1.4,19.08,5.5,26.78,13.87,45.08,16.17,17.81,2.23,33.28-2.84,43.81-7.67l1.94,105.66-142.33-17c-.98-32.85-1.97-65.7-2.95-98.56Z"/>
    </g>
  </g>
  <path class="cls-2" d="M403.12,95.59c-2.76,0-5.13-1.02-7.11-3.06-1.98-2.04-2.97-4.44-2.97-7.2v-5.58c0-2.76.99-5.16,2.97-7.2,1.98-2.04,4.35-3.06,7.11-3.06h30.78c1.08,0,1.62-.48,1.62-1.44.24-6.24.36-11.04.36-14.4,0-2.76,1.02-5.16,3.06-7.2s4.44-3.06,7.2-3.06h7.92c2.76,0,5.13.99,7.11,2.97,1.98,1.98,2.97,4.35,2.97,7.11,0,3.48-.12,8.34-.36,14.58,0,.96.48,1.44,1.44,1.44h55.62c2.76,0,5.13,1.02,7.11,3.06,1.98,2.04,2.97,4.44,2.97,7.2v12.6c0,15.24-.21,28.2-.63,38.88-.42,10.68-1.23,19.83-2.43,27.45-1.2,7.62-2.58,13.65-4.14,18.09-1.56,4.44-3.72,7.92-6.48,10.44-2.76,2.52-5.61,4.17-8.55,4.95-2.94.78-6.75,1.17-11.43,1.17-8.64,0-18-.48-28.08-1.44-2.76-.24-5.07-1.47-6.93-3.69-1.86-2.22-2.67-4.71-2.43-7.47l.54-5.94c.24-2.76,1.44-5.07,3.6-6.93,2.16-1.86,4.62-2.67,7.38-2.43,6.72.6,12.36.9,16.92.9,3.24,0,5.61-1.17,7.11-3.51,1.5-2.34,2.7-7.83,3.6-16.47.9-8.64,1.35-21.84,1.35-39.6v-9.54c0-1.08-.48-1.62-1.44-1.62h-35.46c-.96,0-1.56.54-1.8,1.62-2.52,22.32-7.26,40.65-14.22,54.99-6.96,14.34-16.98,27.15-30.06,38.43-2.16,1.8-4.65,2.58-7.47,2.34-2.82-.24-5.19-1.44-7.11-3.6l-4.5-4.86c-1.92-2.04-2.76-4.44-2.52-7.2.24-2.76,1.38-5.04,3.42-6.84,9.96-8.76,17.61-18.66,22.95-29.7,5.34-11.04,9.09-25.56,11.25-43.56.24-1.08-.24-1.62-1.44-1.62h-28.8Z"/>
  <path class="cls-2" d="M597.72,189.19l-5.58-7.92c-1.56-2.28-2.04-4.74-1.44-7.38.6-2.64,2.1-4.68,4.5-6.12,20.52-12.24,37.98-26.1,52.38-41.58.72-.72.66-1.44-.18-2.16-12.72-10.08-24.84-19.32-36.36-27.72-2.28-1.68-3.63-3.87-4.05-6.57-.42-2.7.27-5.13,2.07-7.29l5.58-6.48c1.92-2.28,4.29-3.6,7.11-3.96,2.82-.36,5.43.3,7.83,1.98,11.28,8.16,23.22,17.22,35.82,27.18.84.6,1.56.48,2.16-.36,9.36-14.16,16.8-29.04,22.32-44.64.96-2.76,2.7-4.83,5.22-6.21,2.52-1.38,5.16-1.83,7.92-1.35l9.9,2.16c2.76.6,4.83,2.07,6.21,4.41,1.38,2.34,1.65,4.83.81,7.47-6.48,20.88-15.78,40.26-27.9,58.14-.6.84-.42,1.62.54,2.34,12.48,10.32,24.66,20.88,36.54,31.68,2.04,1.92,3.15,4.29,3.33,7.11.18,2.82-.69,5.31-2.61,7.47l-5.94,6.84c-1.92,2.04-4.26,3.15-7.02,3.33-2.76.18-5.16-.69-7.2-2.61-10.2-9.36-22.02-19.68-35.46-30.96-.84-.6-1.56-.6-2.16,0-16.8,18-36.66,33.6-59.58,46.8-2.52,1.44-5.19,1.8-8.01,1.08-2.82-.72-5.07-2.28-6.75-4.68Z"/>
  <path class="cls-2" d="M802.26,125.47c-2.76,0-5.16-1.02-7.2-3.06-2.04-2.04-3.06-4.44-3.06-7.2v-5.58c0-2.76,1.02-5.16,3.06-7.2s4.44-3.06,7.2-3.06h122.94c2.88,0,5.31.99,7.29,2.97,1.98,1.98,2.91,4.41,2.79,7.29-1.08,26.52-10.08,46.95-27,61.29-16.92,14.34-42.48,22.89-76.68,25.65-2.88.24-5.46-.54-7.74-2.34-2.28-1.8-3.72-4.14-4.32-7.02l-1.08-5.94c-.48-2.64.12-5.04,1.8-7.2,1.68-2.16,3.9-3.36,6.66-3.6,21.6-1.8,38.61-6.21,51.03-13.23s20.61-17.19,24.57-30.51c.24-.84-.12-1.26-1.08-1.26h-99.18ZM815.04,52.03h99.72c2.76,0,5.13,1.02,7.11,3.06,1.98,2.04,2.97,4.44,2.97,7.2v5.76c0,2.76-.99,5.13-2.97,7.11-1.98,1.98-4.35,2.97-7.11,2.97h-99.72c-2.76,0-5.13-.99-7.11-2.97-1.98-1.98-2.97-4.35-2.97-7.11v-5.76c0-2.76.99-5.16,2.97-7.2,1.98-2.04,4.35-3.06,7.11-3.06Z"/>
</svg>