<?xml version="1.0" encoding="UTF-8"?>
<svg id="_レイヤー_1" data-name="レイヤー 1" xmlns="http://www.w3.org/2000/svg" viewBox="0 0 24 24" fill="#FFF">
  <path d="M18,7h-3c-.55,0-1,.45-1,1s.45,1,1,1h1.5c.83,0,1.5.67,1.5,1.5v7c0,.83-.67,1.5-1.5,1.5H7.5c-.83,0-1.5-.67-1.5-1.5v-7c0-.83.67-1.5,1.5-1.5h1.5c.55,0,1-.45,1-1s-.45-1-1-1h-3c-1.1,0-2,.9-2,2v10c0,1.1.9,2,2,2h12c1.1,0,2-.9,2-2v-10c0-1.1-.9-2-2-2Z"/>
  <path d="M10.12,6.42h.46c.22,0,.4.18.4.4v7.14c0,.55.45,1,1,1s1-.45,1-1v-7.14c0-.22.18-.4.4-.4h.51c.64,0,1.04-.69.72-1.25l-1.88-3.26c-.32-.55-1.12-.55-1.44,0l-1.88,3.26c-.32.55.08,1.25.72,1.25Z"/>
</svg>