<?xml version="1.0" encoding="UTF-8"?>
<svg id="_レイヤー_1" data-name="レイヤー 1" xmlns="http://www.w3.org/2000/svg" viewBox="0 0 24 24" fill="#FFF">
  <path d="M16.95,5.64l-4.67,4.67c-.16.16-.41.16-.57,0l-4.67-4.67c-.39-.39-1.02-.39-1.41,0s-.39,1.02,0,1.41l4.67,4.67c.16.16.16.41,0,.57l-4.67,4.67c-.39.39-.39,1.02,0,1.41s1.02.39,1.41,0l4.67-4.67c.16-.16.41-.16.57,0l4.67,4.67c.39.39,1.02.39,1.41,0s.39-1.02,0-1.41l-4.67-4.67c-.16-.16-.16-.41,0-.57l4.67-4.67c.39-.39.39-1.02,0-1.41s-1.02-.39-1.41,0Z"/>
</svg>