<?xml version="1.0" encoding="UTF-8"?>
<svg id="_レイヤー_1" data-name="レイヤー 1" xmlns="http://www.w3.org/2000/svg" viewBox="0 0 24 24" fill="#FFF">
  <path d="M7.06,9.14c.06,0,.18.05.18.18v5.36c0,.14-.13.18-.18.18-.03,0-.06,0-.09-.03l-4.64-2.68c-.06-.03-.09-.09-.09-.16s.03-.12.09-.16l4.64-2.68s.06-.03.09-.03M7.06,8.14c-.2,0-.4.05-.59.16l-4.64,2.68c-.79.45-.79,1.59,0,2.05l4.64,2.68c.19.11.39.16.59.16.62,0,1.18-.49,1.18-1.18v-5.36c0-.69-.57-1.18-1.18-1.18h0Z"/>
  <path d="M22.17,13.02l-4.64,2.68c-.79.45-1.77-.11-1.77-1.02v-5.36c0-.91.98-1.48,1.77-1.02l4.64,2.68c.79.45.79,1.59,0,2.05Z"/>
  <g>
    <path d="M12,5c-.55,0-1-.45-1-1v-1c0-.55.45-1,1-1s1,.45,1,1v1c0,.55-.45,1-1,1Z"/>
    <path d="M12,17c-.55,0-1-.45-1-1v-2c0-.55.45-1,1-1s1,.45,1,1v2c0,.55-.45,1-1,1ZM12,11c-.55,0-1-.45-1-1v-2c0-.55.45-1,1-1s1,.45,1,1v2c0,.55-.45,1-1,1Z"/>
    <path d="M12,22c-.55,0-1-.45-1-1v-1c0-.55.45-1,1-1s1,.45,1,1v1c0,.55-.45,1-1,1Z"/>
  </g>
</svg>