<?xml version="1.0" encoding="UTF-8"?>
<svg id="_レイヤー_1" data-name="レイヤー 1" xmlns="http://www.w3.org/2000/svg" viewBox="0 0 24 24" fill="#FFF">
  <path d="M18.28,7.57h-1.87c-.28,0-.52-.19-.59-.47l-.39-1.74c-.1-.46-.51-.78-.98-.78h-4.93c-.47,0-.87.32-.98.78l-.39,1.74c-.06.27-.3.47-.59.47h-1.87c-1.66,0-3,1.34-3,3v5.85c0,1.66,1.34,3,3,3h12.57c1.66,0,3-1.34,3-3v-5.85c0-1.66-1.34-3-3-3ZM10.45,6.58h3.1c.07,0,.13.05.14.11l.16.7c.02.09-.05.18-.14.18h-3.41c-.09,0-.16-.09-.14-.18l.16-.7c.01-.07.07-.11.14-.11ZM19.28,16.42c0,.55-.45,1-1,1H5.72c-.55,0-1-.45-1-1v-5.85c0-.55.45-1,1-1h12.57c.55,0,1,.45,1,1v5.85Z"/>
  <path d="M12.6,10.79v-.34c0-.29-.31-.47-.56-.32l-1.47.85c-.25.14-.25.5,0,.65l1.47.85c.25.14.56-.04.56-.32v-.12c0-.06.06-.1.12-.08.84.32,1.42,1.17,1.3,2.14-.11.92-.86,1.66-1.78,1.77-1.23.14-2.27-.82-2.27-2.02,0-.22.03-.43.1-.64.09-.26-.06-.54-.32-.63-.26-.09-.55.06-.63.32-.19.59-.2,1.22-.03,1.84.27.93,1.01,1.7,1.93,1.98,2.08.65,4-.89,4-2.88,0-1.44-1.01-2.65-2.36-2.95-.04,0-.07-.04-.07-.08Z"/>
</svg>