<?xml version="1.0" encoding="UTF-8"?>
<svg id="_レイヤー_1" data-name="レイヤー 1" xmlns="http://www.w3.org/2000/svg" viewBox="0 0 24 24" fill="#FFF">
  <path d="M20.17,6.1h-4.2c-.14,0-.25-.11-.25-.25v-1.13c0-1.1-.9-2-2-2h-3.43c-1.1,0-2,.9-2,2v1.13c0,.14-.11.25-.25.25H3.83c-.53,0-1,.4-1.03.93-.04.58.42,1.07,1,1.07h.98c.13,0,.24.1.25.23l1,10.06c.17,1.62,1.47,2.89,2.95,2.89h6.05c1.48,0,2.78-1.27,2.95-2.9l1-10.05c.01-.13.12-.23.25-.23h.98c.57,0,1.04-.48,1-1.07-.03-.53-.5-.93-1.03-.93ZM10.54,4.72h2.93c.14,0,.25.11.25.25v.88c0,.14-.11.25-.25.25h-2.93c-.14,0-.25-.11-.25-.25v-.88c0-.14.11-.25.25-.25ZM15.99,18.17c-.07.65-.56,1.11-.96,1.11h-6.05c-.4,0-.89-.45-.96-1.1l-.97-9.81c-.01-.15.1-.27.25-.27h9.42c.15,0,.26.13.25.27l-.97,9.8Z"/>
  <path d="M10.28,10.18c-.53.03-.93.5-.93,1.03v4.96c0,.53.4,1,.93,1.03.58.04,1.07-.42,1.07-1v-5.03c0-.57-.48-1.03-1.07-1Z"/>
  <path d="M13.59,10.18c-.53.03-.93.5-.93,1.03v4.96c0,.53.4,1,.93,1.03.58.04,1.07-.42,1.07-1v-5.03c0-.57-.48-1.03-1.07-1Z"/>
</svg>