<?xml version="1.0" encoding="UTF-8"?>
<svg id="_レイヤー_1" data-name="レイヤー 1" xmlns="http://www.w3.org/2000/svg" viewBox="0 0 24 24" fill="#FFF">
  <path d="M10.1,4.44v-1.68c0-.91.98-1.48,1.77-1.02l4.64,2.68c.79.45.79,1.59,0,2.05l-4.64,2.68c-.79.45-1.77-.11-1.77-1.02v-1.06c0-.17-.17-.3-.34-.25-3.15,1.07-5.31,4.32-4.64,7.94.52,2.83,2.79,5.08,5.62,5.57,4.41.77,8.26-2.62,8.26-6.89,0-.75-.12-1.48-.35-2.18-.16-.49.06-1.04.53-1.25.56-.25,1.18.04,1.36.6.28.84.43,1.72.45,2.62.11,4.83-3.74,8.97-8.56,9.2-5.16.25-9.44-3.88-9.44-8.99,0-4.24,2.95-7.8,6.9-8.75.11-.03.2-.13.2-.25Z"/>
</svg>